# xmcd
#
# Track frame offsets:
# 150
# 18765
# 34761
# 49139
# 70402
# 88325
# 98611
# 116324
#
# Disc length: 1744 seconds
#
#
# Revision: 0
# Processed by: cddbd v1.5.2PL0 Copyright (c) Steve Scherf et al.
# Submitted via: FreeRIP 2.945 
#
DISCID=5e06ce08
DTITLE=Jude - Still Livin'
DYEAR=1990
DGENRE=homemade
TTITLE0=I Can't See You Anymore
TTITLE1=If I'd Known About You
TTITLE2=Heartache in the Wind
TTITLE3=Secret Place
TTITLE4=Sweet Sunday Dreamin'
TTITLE5=Champagne and Candlelight
TTITLE6=Party Girl
TTITLE7=I Won't Be Your Baby Anymore
EXTD=
EXTT0=
EXTT1=
EXTT2=
EXTT3=
EXTT4=
EXTT5=
EXTT6=
EXTT7=
PLAYORDER=
